<svg version="1.1" xmlns="http://www.w3.org/2000/svg" xmlns:xlink="http://www.w3.org/1999/xlink" width="108.80011" height="115" viewBox="0,0,108.80011,115"><g transform="translate(-168.25274,-103.00002)"><g data-paper-data="{&quot;isPaintingLayer&quot;:true}" fill-rule="nonzero" stroke-linejoin="miter" stroke-miterlimit="10" stroke-dasharray="" stroke-dashoffset="0" style="mix-blend-mode: normal"><path d="M204.50003,216.50003v-91.5c0,0 4.59373,-9.07145 12.46384,-14.60603c6.59133,-4.63528 16.07795,-5.89397 21.33616,-5.89397c5.51543,0 16.2294,0.75729 23.53699,5.39168c8.72799,5.53519 13.66301,15.10832 13.66301,15.10832v91.5z" fill="#935400" stroke="#925500" stroke-width="2" stroke-linecap="butt"/><path d="M224.52782,156.51392c0,0 1.79765,-1.51562 2.69047,-1.38542c0.88489,0.12905 2.64287,2.1632 2.64287,2.1632l-0.55556,6" fill="none" stroke="#c6c6c6" stroke-width="1" stroke-linecap="round"/><path d="M240.00003,105.50003v110" fill="none" stroke="#583300" stroke-width="5" stroke-linecap="round"/><path d="M204.30004,140.95003l3,3.5" fill="none" stroke="#616161" stroke-width="5" stroke-linecap="round"/><path d="M212.12003,149.58002l-3,-3.2" fill="none" stroke="#9f9f9f" stroke-width="5" stroke-linecap="round"/><path d="M216.70004,154.45003l-3,-3.5" fill="none" stroke="#616161" stroke-width="5" stroke-linecap="round"/><path d="M221.34284,158.14017l-3.88561,-2.48033" fill="none" stroke="#9e9f9e" stroke-width="5" stroke-linecap="round"/><path d="M223.45329,159.26098l4.29348,1.6781" fill="none" stroke="#616161" stroke-width="5" stroke-linecap="round"/><path d="M233.94677,163.33908l-4.29348,-1.6781" fill="none" stroke="#9e9f9e" stroke-width="5" stroke-linecap="round"/><path d="M234.3139,163.80668l4.57229,0.58669" fill="none" stroke="#616161" stroke-width="5" stroke-linecap="round"/><path d="M274.55285,140.95003l-3,3.5" data-paper-data="{&quot;index&quot;:null}" fill="none" stroke="#9e9f9e" stroke-width="5" stroke-linecap="round"/><path d="M266.73285,149.58003l3,-3.2" data-paper-data="{&quot;index&quot;:null}" fill="none" stroke="#616161" stroke-width="5" stroke-linecap="round"/><path d="M265.15285,150.95003l-3,3.5" data-paper-data="{&quot;index&quot;:null}" fill="none" stroke="#9e9f9e" stroke-width="5" stroke-linecap="round"/><path d="M257.51005,158.14019l3.88561,-2.48033" data-paper-data="{&quot;index&quot;:null}" fill="none" stroke="#616161" stroke-width="5" stroke-linecap="round"/><path d="M255.3996,159.26098l-4.29348,1.6781" data-paper-data="{&quot;index&quot;:null}" fill="none" stroke="#9e9f9e" stroke-width="5" stroke-linecap="round"/><path d="M249.1996,161.66098l-4.29348,1.6781" data-paper-data="{&quot;index&quot;:null}" fill="none" stroke="#616161" stroke-width="5" stroke-linecap="round"/><path d="M244.53899,163.80668l-4.57229,0.58669" data-paper-data="{&quot;index&quot;:null}" fill="none" stroke="#9e9f9e" stroke-width="5" stroke-linecap="round"/><path d="M245.75005,172.87504c0,-1.38071 1.11929,-2.5 2.5,-2.5c1.38071,0 2.5,1.11929 2.5,2.5c0,1.38071 -1.11929,2.5 -2.5,2.5c-1.38071,0 -2.5,-1.11929 -2.5,-2.5z" fill="#593200" stroke="none" stroke-width="0.5" stroke-linecap="butt"/><path d="M218.55336,172.94087c0.23298,-2.34335 0.52413,-5.27168 0.65957,-6.63396c0.14244,-1.43265 1.86298,-3.24829 3.07454,-3.12783c1.4386,0.14303 5.00748,0.49786 7.62905,0.7585c1.74363,0.17336 2.94136,1.5809 2.77415,3.26269c-0.24649,2.4792 -0.58069,5.84055 -0.72553,7.29736c-0.13534,1.36128 -1.64629,3.04651 -3.38425,2.87372c-2.93524,-0.29183 -7.0334,-0.69928 -7.85018,-0.78049c-1.13307,-0.11265 -2.36529,-1.75972 -2.17735,-3.64999z" fill="#616161" stroke="#c6c6c6" stroke-width="1" stroke-linecap="butt"/><path d="M223.17579,167.95837c0,-1.35003 1.09442,-2.44444 2.44444,-2.44444c1.35003,0 2.44444,1.09442 2.44444,2.44444c0,1.35003 -1.09442,2.44444 -2.44444,2.44444c-1.35003,0 -2.44444,-1.09442 -2.44444,-2.44444z" fill="#000000" stroke="none" stroke-width="0" stroke-linecap="butt"/><path d="M226.11541,169.98483l0.5652,4.39152l-3.48612,-0.41798l1.33333,-4.22222z" fill="#000000" stroke="#000000" stroke-width="0.5" stroke-linecap="round"/><path d="M224.1945,156.62503l-0.55556,6.55556" fill="none" stroke="#c6c6c6" stroke-width="1" stroke-linecap="round"/><path d="M222.50005,146.62503l-8.5,-10.75l11,6.25l3.25,-9.25l4,16.75l3.25,-5l-2.5,9.5l-11,-3.75z" fill="#000000" stroke="#000000" stroke-width="0.5" stroke-linecap="round"/><path d="M265.00005,157.87503l3.25,8.25l-1.25,5.75l-3,7l-0.5,6.75l-4,6.75l-4.25,5l5.75,-10.75l0.75,-9.75l3.5,-7.75l-0.5,-7.5z" fill="#000000" stroke="#000000" stroke-width="0.5" stroke-linecap="round"/><path d="M212.58992,215.10714l-42.6054,0.58898l0.80219,-2.45303c0.5181,-0.07692 1.05105,-0.12641 1.61448,-0.12645c0.86772,-0.00018 3.09419,0.36273 3.61887,-0.56943c0.24087,-0.42794 0.23327,-1.31101 0.12212,-2.17056l33.21833,-0.84701z" fill="#5d5d5d" stroke="#cacaca" stroke-width="2.5" stroke-linecap="butt"/><path d="M180.55242,209.08076l1.89644,-6.48833c0.35762,0.03069 0.71591,-0.01493 1.05365,-0.15822c0.91009,-0.38612 1.69802,-2.22509 2.46959,-3.07344c0.13745,-1.50178 2.03084,-3.59971 3.83111,-2.29583c1.62217,1.17489 -2.47201,3.21724 -0.12566,3.70024c0.86065,-0.3364 4.38871,-0.35341 4.86722,-1.01379c0.30883,-0.42621 0.04214,-1.10766 0.16114,-1.56742c0.2394,-0.92493 1.50249,-1.57549 2.46516,-1.89026l1.26841,-0.05211l5.3238,13.05343z" fill="#525252" stroke="#cacaca" stroke-width="2.5" stroke-linecap="butt"/></g></g></svg>