<svg version="1.2" xmlns="http://www.w3.org/2000/svg" viewBox="0 0 313 153" width="313" height="153">
	<title>markup-cropped-svg</title>
	<defs>
		<clipPath clipPathUnits="userSpaceOnUse" id="cp1">
			<path d="m-199-177h720v540h-720z"/>
		</clipPath>
	</defs>
	<style>
		.s0 { fill: none } 
		.s1 { fill: #ffffff } 
		.s2 { fill: #9e9e9e } 
		.s3 { fill: #000000 } 
		.s4 { fill: #5d5d5d;stroke: #cacaca;stroke-linecap: round;stroke-width: 5;stroke-dasharray: NaN } 
		.s5 { fill: #525252;stroke: #cacaca;stroke-linecap: round;stroke-width: 5;stroke-dasharray: NaN } 
		.s6 { fill: none;stroke: #ffffff;stroke-linecap: round;stroke-width: 7.5;stroke-dasharray: NaN } 
	</style>
	<g id="Layer">
		<g id="Clip-Path" clip-path="url(#cp1)">
			<g id="Layer">
				<path id="Layer" class="s0" d="m-319-267h960v720h-960z"/>
				<path id="Layer" fill-rule="evenodd" class="s1" d="m19.7 140.8q-1.7 0-2.7-0.9-0.9-1-0.9-2.7v-44.1q0.1-7.2 3.5-13.1 3.4-5.8 9.2-9.2 5.8-3.3 13.1-3.3 7.5 0 13.4 3.4 5.8 3.4 9.2 9.3 3.5 5.9 3.5 13.3 0 7.4-3.4 13.3-3.3 5.8-9 9.3-5.7 3.4-12.8 3.4-6.3 0-11.4-2.7-5.1-2.7-8.2-7v27.4q0 1.7-0.9 2.7-1 0.9-2.6 0.9zm22.2-27.9q5.4 0 9.7-2.5 4.3-2.5 6.8-6.9 2.5-4.5 2.5-10 0-5.6-2.5-10-2.5-4.4-6.8-6.9-4.3-2.6-9.7-2.6-5.3 0-9.6 2.6-4.3 2.5-6.7 6.9-2.4 4.4-2.4 10 0 5.5 2.4 10 2.4 4.4 6.7 6.9 4.3 2.5 9.6 2.5zm73.8 7q-7.5 0-14.1-2.9-6.6-2.9-11.6-8-5-5.2-7.8-12-2.8-6.8-2.8-14.5 0-7.6 2.8-14.4 2.7-6.8 7.7-11.9 5-5.1 11.6-8.1 6.6-2.9 14.2-2.9 6.8 0 12.3 1.9 5.5 2 10.6 6.3 0.8 0.6 1 1.5 0.1 0.9-0.3 1.7-0.3 0.8-1.1 1.2-0.2 0.7-0.9 1.1-0.8 0.4-1.7 0.3-1-0.1-1.9-0.9-3.7-3.2-8-4.7-4.3-1.5-10-1.5-6 0-11.3 2.4-5.3 2.4-9.3 6.6-4 4.2-6.3 9.7-2.3 5.5-2.3 11.7 0 6.4 2.3 11.9 2.3 5.5 6.3 9.7 4 4.2 9.3 6.5 5.3 2.4 11.3 2.4 5.2 0 9.7-1.6 4.6-1.7 8.7-4.9 1.1-0.9 2.4-0.8 1.3 0.2 2.2 1.2 0.9 0.9 0.9 2.4 0 0.7-0.2 1.3-0.2 0.6-0.8 1.3-4.8 4.4-10.6 6.2-5.9 1.8-12.3 1.8zm38-70.2q0-1.6 1-2.6 1-1 2.7-1 1.5 0 2.5 1 1 1 1 2.6v25q2.5-2.8 6-4.7 4.9-2.6 11-2.6 6.6 0 11.8 2.7 5.3 2.8 8.3 8.1 3 5.3 3 13v24.2q0 1.5-1 2.6-1 1-2.5 1-1.6 0-2.6-1-1.1-1.1-1.1-2.6v-24.2q0-5.8-2.2-9.5-2.1-3.8-5.9-5.6-3.8-1.9-8.6-1.9-4.5 0-8.2 1.8-3.7 1.7-5.9 4.8-2.1 3.1-2.1 7v27.6q0 1.6-1 2.6-1 1-2.5 1-1.7 0-2.7-1-1-1-1-2.6zm85.7 69.8q-7.2 0-12.9-3.4-5.7-3.4-9-9.3-3.3-5.9-3.3-13.3 0-7.4 3.4-13.3 3.4-5.9 9.3-9.3 5.9-3.4 13.2-3.4 7.4 0 13.2 3.4 5.9 3.4 9.3 9.3 3.4 5.9 3.5 13.3l-5.5-1.4-1.8 7.4v10.3q-2.9 4-7.2 6.5-5.4 3.2-12.2 3.2zm26.7-26v21.9q0 1.6-1.1 2.6-1 1-2.6 1-1.5 0-2.6-1-1-1-1-2.6v-5.6q0.7-0.9 1.3-1.9 3.1-5.4 3.1-12.1zm-25.9 19.4q5.4 0 9.6-2.5 4.3-2.6 6.7-7 2.5-4.4 2.5-9.9 0-5.6-2.5-10-2.4-4.4-6.7-7-4.2-2.5-9.6-2.5-5.4 0-9.7 2.5-4.3 2.6-6.8 7-2.5 4.4-2.5 10 0 5.5 2.5 9.9 2.5 4.4 6.8 7 4.3 2.5 9.7 2.5zm59.9 6q-5 0-8.9-2.3-3.8-2.3-6.1-6.4-2.2-4-2.2-9.3v-24.9h-6.1q-1.4 0-2.3-0.9-0.9-0.9-0.9-2.2 0-1.4 0.9-2.3 0.9-0.8 2.3-0.8h6.1v-14.5q0-1.6 1-2.6 1-1.1 2.5-1.1 1.6 0 2.7 1.1 1 1 1 2.6v14.5h10.5q1.4 0 2.4 0.8 0.9 0.9 0.9 2.3 0 1.3-0.9 2.2-1 0.9-2.4 0.9h-10.5v24.9q0 4.8 2.8 7.8 2.8 3.1 7.2 3.1h2.5q1.5 0 2.4 1 0.9 1 0.9 2.6 0 1.6-1.1 2.6-1.1 0.9-2.8 0.9z"/>
				<path id="Layer" class="s2" d="m23.2 93.5c0-10.6 8.4-19.3 18.8-19.3 10.3 0.1 18.7 8.7 18.7 19.3 0 10.6-8.4 19.3-18.7 19.3-10.4-0.1-18.8-8.7-18.8-19.3z"/>
				<path id="Layer" class="s2" d="m221.2 93.5c0-10.6 8.4-19.3 18.8-19.3 10.3 0.1 18.7 8.7 18.7 19.3 0 10.6-8.4 19.3-18.7 19.3-10.4-0.1-18.8-8.7-18.8-19.3z"/>
				<path id="Layer" class="s3" d="m39.7 93.5c0-5 4-9 9-9 5 0 9 4 9 9 0 5-4 9-9 9-5 0-9-4-9-9z"/>
				<path id="Layer" class="s3" d="m222.7 93c0-5 4-9 9-9 5 0 9 4 9 9 0 5-4 9-9 9-5 0-9-4-9-9z"/>
				<path id="Layer" class="s4" d="m138.2 39.3l-67.5 19 0.5-9 59.5-17.5z"/>
				<path id="Layer" class="s5" d="m84.7 43.3l0.5-21 22.5-7 14 18.5z"/>
				<path id="Layer" class="s6" d="m239.8 52.1c4.5 0 13.5 5.8 13.5 5.8v17.1c0 0-2.4-1.6-5.8-2.5-2.9-0.8-6.6-0.8-8.7-0.8-1.9 0-4.9 0.3-7.2 1-2.9 1-4.8 2.3-4.8 2.3v-17.4c0 0 8.6-5.6 13-5.5z"/>
			</g>
		</g>
	</g>
</svg>